<?xml version="1.0" standalone="no"?>
<!DOCTYPE svg PUBLIC "-//W3C//DTD SVG 20010904//EN"
 "http://www.w3.org/TR/2001/REC-SVG-20010904/DTD/svg10.dtd">
<svg version="1.0" xmlns="http://www.w3.org/2000/svg"
 width="500.000000pt" height="500.000000pt" viewBox="0 0 500.000000 500.000000"
 preserveAspectRatio="xMidYMid meet">
<metadata>
Created by potrace 1.11, written by Peter Selinger 2001-2013
</metadata>
<g transform="translate(0.000000,500.000000) scale(0.100000,-0.100000)"
fill="#000000" stroke="none">
<path d="M0 3828 c0 -644 2 -1169 4 -1167 2 2 243 517 536 1144 292 627 538
1150 546 1162 8 12 14 25 14 28 0 3 -247 5 -550 5 l-550 0 0 -1172z"/>
<path d="M1524 4960 c8 -33 7 -54 -7 -105 -14 -57 -1216 -2648 -1334 -2878
-48 -94 -103 -150 -153 -161 l-30 -5 0 -906 0 -905 1744 0 1745 0 -15 35 c-20
49 -18 95 10 174 37 107 1316 2839 1359 2903 41 62 89 98 131 98 l26 0 0 895
0 895 -1744 0 -1743 0 11 -40z m2166 -1810 c111 -32 194 -82 285 -174 138
-139 189 -266 189 -471 0 -137 -16 -212 -68 -320 -112 -232 -330 -365 -601
-365 -134 0 -235 29 -349 100 l-36 22 0 -185 0 -184 124 -5 c153 -7 190 -22
224 -88 27 -53 25 -129 -4 -179 -34 -58 -56 -61 -457 -61 -207 0 -377 4 -398
10 -19 5 -48 24 -65 41 -27 29 -29 35 -29 114 0 82 1 86 32 116 29 29 39 33
127 42 l96 11 0 622 0 622 -47 7 c-92 14 -148 106 -129 210 18 94 83 119 302
113 173 -4 184 -10 184 -96 l0 -55 53 51 c61 57 132 96 215 117 80 20 254 13
352 -15z m-2217 -14 c48 -20 76 -56 86 -112 9 -48 2 -117 -14 -143 -4 -7 -20
-18 -36 -25 l-29 -12 69 -82 69 -82 75 81 75 82 -33 31 c-52 49 -61 156 -18
215 42 57 68 62 293 59 179 -3 210 -5 244 -22 93 -46 102 -215 16 -278 -17
-12 -51 -21 -97 -25 l-71 -6 -146 -160 -146 -159 170 -178 170 -177 54 -6 c96
-10 139 -45 158 -129 12 -53 -5 -128 -35 -156 -38 -35 -93 -42 -317 -42 -185
0 -220 2 -249 18 -54 27 -75 63 -79 135 -4 77 18 126 65 141 l32 11 -85 90
-84 90 -28 -31 c-15 -17 -51 -59 -80 -92 l-53 -61 28 -13 c44 -21 65 -72 60
-145 -3 -35 -12 -74 -22 -89 -32 -50 -67 -56 -299 -52 -181 3 -216 6 -244 21
-64 35 -92 153 -54 226 24 48 58 70 119 77 50 6 53 9 219 175 l168 168 -25 28
c-14 16 -85 92 -159 171 -130 139 -134 142 -175 142 -124 0 -197 81 -181 199
10 72 40 105 111 122 17 4 124 7 238 8 155 1 216 -2 240 -13z"/>
<path d="M3350 2851 c-74 -24 -150 -92 -188 -168 -49 -97 -54 -247 -13 -356
26 -66 95 -143 156 -171 64 -30 168 -33 240 -5 124 46 203 165 213 321 10 159
-50 287 -166 355 -38 23 -60 27 -131 30 -47 1 -97 -1 -111 -6z"/>
<path d="M4471 1268 c-288 -618 -541 -1156 -561 -1195 l-37 -73 563 0 564 0 0
1195 c0 657 -1 1195 -3 1195 -1 0 -238 -505 -526 -1122z"/>
</g>
</svg>
